<svg width="141" height="41" viewBox="0 0 141 41" fill="none" xmlns="http://www.w3.org/2000/svg">
<g clip-path="url(#clip0_1_443)">
<path d="M5.09068 18.1374C5.40659 18.6629 5.86399 19.0891 6.4107 19.3674C6.97027 19.6635 7.59476 19.816 8.22796 19.811C8.76662 19.8131 9.30218 19.7293 9.81435 19.5626C10.3066 19.3961 10.7729 19.1612 11.1995 18.8648C11.6197 18.5733 11.9779 18.2015 12.2531 17.7707V22.1173C11.7202 22.5213 11.1186 22.8258 10.4773 23.0162C9.63213 23.2644 8.7535 23.3801 7.87279 23.3592C6.47627 23.3823 5.09372 23.0785 3.83576 22.4721C2.68618 21.9206 1.7127 21.0607 1.02405 19.9884C0.327776 18.8722 -0.0280632 17.5776 -5.10842e-06 16.2627C-0.0311906 14.9419 0.324756 13.6407 1.02405 12.5193C1.71685 11.455 2.68965 10.6018 3.83576 10.0533C5.09372 9.44695 6.47627 9.14316 7.87279 9.16622C8.7535 9.14531 9.63213 9.26102 10.4773 9.50922C11.1093 9.69542 11.7084 9.97873 12.2531 10.349V14.7251C11.9741 14.2896 11.6071 13.917 11.1758 13.6311C10.7317 13.3363 10.2472 13.1072 9.7374 12.951C9.24909 12.7965 8.74017 12.7167 8.22796 12.7145C7.59128 12.7112 6.96482 12.8743 6.4107 13.1876C5.86416 13.485 5.4081 13.9242 5.09068 14.459C4.77223 15.0063 4.60856 15.6297 4.61712 16.2627C4.59823 16.9193 4.76217 17.5683 5.09068 18.1374Z" fill="black"/>
<path d="M19.83 0V23.0636H15.3312V0H19.83Z" fill="black"/>
<path d="M23.6776 2.61412C24.1954 2.18624 24.8465 1.95215 25.5185 1.95215C26.1905 1.95215 26.8415 2.18624 27.3594 2.61412C27.6064 2.82876 27.8025 3.09558 27.9335 3.39526C28.0646 3.69494 28.1273 4.01998 28.1171 4.34684C28.1306 4.68021 28.0695 5.01238 27.9385 5.31925C27.8074 5.62612 27.6096 5.89999 27.3594 6.12097C26.8467 6.55986 26.1937 6.8011 25.5185 6.8011C24.8433 6.8011 24.1903 6.55986 23.6776 6.12097C23.4235 5.90248 23.2223 5.62937 23.0891 5.3221C22.9558 5.01484 22.8939 4.68142 22.908 4.34684C22.8976 4.01881 22.9614 3.69264 23.0946 3.39264C23.2279 3.09264 23.4271 2.82653 23.6776 2.61412ZM27.6731 9.46223V23.0638H23.352V9.46223H27.6731Z" fill="black"/>
<path d="M35.4276 18.1374C35.7411 18.6627 36.1966 19.089 36.7417 19.3674C37.3036 19.6629 37.9298 19.8152 38.5648 19.811C39.1016 19.8131 39.6352 19.7293 40.1453 19.5626C40.6399 19.3973 41.1083 19.1624 41.5364 18.8648C41.9673 18.5764 42.3357 18.2043 42.6196 17.7707V22.1173C42.0867 22.5213 41.4851 22.8258 40.8438 23.0162C39.9986 23.2644 39.12 23.3801 38.2393 23.3592C36.8309 23.3867 35.4358 23.0829 34.1667 22.4721C33.0247 21.9164 32.058 21.057 31.3728 19.9884C30.6783 18.8717 30.3245 17.5771 30.3546 16.2627C30.3213 14.9424 30.6752 13.6412 31.3728 12.5193C32.0623 11.4588 33.0283 10.6062 34.1667 10.0533C35.4268 9.44709 36.8113 9.14333 38.2097 9.16622C39.0904 9.14531 39.969 9.26102 40.8142 9.50922C41.4462 9.69542 42.0453 9.97873 42.59 10.349V14.7251C42.3088 14.2893 41.9399 13.9168 41.5068 13.6311C41.0641 13.3374 40.5817 13.1084 40.0743 12.951C39.586 12.7965 39.0771 12.7167 38.5648 12.7145C37.9264 12.7118 37.2981 12.8749 36.7417 13.1876C36.193 13.4895 35.7375 13.9357 35.4245 14.4777C35.1115 15.0198 34.9529 15.6371 34.9658 16.2627C34.9434 16.9182 35.1032 17.5671 35.4276 18.1374Z" fill="black"/>
<path d="M49.93 0V23.0636H45.6385V0H49.93ZM60.2002 9.462L54.3992 15.0801L60.7921 23.0636H55.5535L49.0421 15.0801L54.8727 9.462H60.2002Z" fill="black"/>
<path d="M67.0963 23.0636H62.5975V0H67.0963V23.0636ZM71.0327 12.9215C70.8518 12.6924 70.6158 12.5126 70.3468 12.3989C70.0777 12.2852 69.7843 12.2412 69.4936 12.271C69.0583 12.2593 68.6282 12.3678 68.2506 12.5845C67.9003 12.7856 67.6132 13.0805 67.4219 13.436C67.211 13.8534 67.1092 14.3172 67.1259 14.7844H66.3564C66.3396 13.7735 66.5205 12.7691 66.8891 11.8275C67.2141 10.9869 67.7727 10.2564 68.4992 9.7222C69.3158 9.17374 70.2864 8.90024 71.2695 8.94159C72.2076 8.89704 73.1409 9.10106 73.9746 9.53296C74.6609 9.93739 75.1891 10.563 75.4722 11.3071C75.8112 12.2141 75.972 13.1779 75.9458 14.1457V23.0636H71.447V14.7844C71.4966 14.1361 71.3524 13.4878 71.0327 12.9215Z" fill="black"/>
<path d="M79.4678 12.5066C80.1573 11.4423 81.1313 10.5921 82.2795 10.0523C83.5232 9.44731 84.892 9.14342 86.2751 9.16529C87.6527 9.14219 89.016 9.44622 90.253 10.0523C91.3908 10.6097 92.3533 11.4689 93.0351 12.5361C93.7337 13.6622 94.0895 14.9669 94.0591 16.2914C94.0872 17.6062 93.7314 18.9008 93.0351 20.017C92.3533 21.0842 91.3908 21.9435 90.253 22.5008C89.016 23.1069 87.6527 23.4109 86.2751 23.3878C84.8896 23.4005 83.5207 23.0865 82.2795 22.4712C81.113 21.9152 80.1337 21.032 79.461 19.9294C78.7883 18.8268 78.4513 17.5524 78.4911 16.2618C78.4489 14.9423 78.788 13.6386 79.4678 12.5066ZM83.493 18.0832C83.7695 18.5701 84.1671 18.9775 84.6473 19.266C85.0088 19.4754 85.4084 19.6109 85.8228 19.6648C86.2372 19.7186 86.6582 19.6897 87.0613 19.5797C87.4644 19.4696 87.8417 19.2807 88.1711 19.0238C88.5005 18.7669 88.7756 18.4472 88.9803 18.0832C89.2794 17.5236 89.4283 16.896 89.4124 16.2618C89.4276 15.6238 89.2789 14.9926 88.9803 14.4285C88.714 13.9341 88.314 13.5243 87.826 13.2458C87.3403 12.9744 86.7931 12.8319 86.2367 12.8319C85.6802 12.8319 85.133 12.9744 84.6473 13.2458C84.1645 13.5309 83.7662 13.9391 83.493 14.4285C83.1852 14.9896 83.032 15.6222 83.0491 16.2618C83.0309 16.8977 83.1843 17.5268 83.493 18.0832Z" fill="black"/>
<path d="M101.666 19.5912C101.843 19.8246 102.078 20.0083 102.348 20.1243C102.618 20.2404 102.913 20.2849 103.205 20.2535C103.642 20.2661 104.074 20.1641 104.46 19.9578C104.808 19.7554 105.091 19.458 105.276 19.1003C105.484 18.6776 105.585 18.2108 105.572 17.7402V9.46094H110.042V23.0625H105.572V21.0223C105.183 21.7247 104.623 22.3184 103.945 22.7491C103.184 23.198 102.311 23.4196 101.429 23.3878C99.7299 23.3878 98.4691 22.9324 97.7114 22.0099C96.871 20.9286 96.4505 19.5801 96.5275 18.2133V9.46094H101.222V17.7402C101.186 18.3872 101.34 19.0306 101.666 19.5912Z" fill="black"/>
<path d="M116.02 19.4681C116.491 19.7535 116.994 19.9837 117.518 20.1541C117.882 20.2687 118.261 20.3323 118.642 20.3433C119.003 20.3708 119.361 20.2656 119.649 20.0476C119.755 19.9503 119.839 19.8312 119.895 19.6986C119.951 19.566 119.978 19.4228 119.974 19.2789C119.983 19.004 119.888 18.7361 119.708 18.5278C119.451 18.2687 119.143 18.0671 118.802 17.9364C118.24 17.6916 117.663 17.4842 117.074 17.3155C116.434 17.0862 115.815 16.8053 115.221 16.4757C114.646 16.1547 114.156 15.7029 113.789 15.157C113.388 14.5213 113.192 13.7784 113.226 13.028C113.202 12.2733 113.436 11.5329 113.889 10.9287C114.36 10.3372 114.984 9.88704 115.695 9.62763C116.533 9.31793 117.423 9.16751 118.317 9.1841C119.059 9.1786 119.799 9.26803 120.519 9.45022C121.182 9.62163 121.827 9.85938 122.443 10.1599C123.042 10.4516 123.612 10.7981 124.147 11.1948L122.549 14.0925C121.97 13.5568 121.311 13.1139 120.596 12.7797C119.972 12.4594 119.284 12.2816 118.583 12.2592C118.254 12.2346 117.926 12.3177 117.648 12.4958C117.554 12.5637 117.478 12.6525 117.424 12.7552C117.371 12.8578 117.342 12.9715 117.34 13.0872C117.338 13.2307 117.37 13.3727 117.434 13.5013C117.498 13.6299 117.591 13.7414 117.707 13.8264C118.033 14.0621 118.392 14.2475 118.773 14.3764L120.477 15.0091C121.156 15.25 121.813 15.5467 122.443 15.8962C123.015 16.2059 123.511 16.6405 123.893 17.1676C124.286 17.7732 124.479 18.487 124.443 19.2079C124.493 19.8241 124.4 20.4435 124.171 21.0178C123.942 21.5922 123.583 22.1061 123.123 22.5196C122.024 23.3346 120.672 23.7366 119.305 23.655C118.391 23.6618 117.479 23.5485 116.594 23.3179C115.789 23.0993 115.011 22.7919 114.274 22.4013C113.58 22.0243 112.917 21.5933 112.291 21.1121L114.156 18.1552C114.738 18.6461 115.362 19.0853 116.02 19.4681Z" fill="black"/>
<path d="M129.587 22.4725C128.474 21.9264 127.544 21.0673 126.912 20.0006C126.259 18.8584 125.932 17.5599 125.965 16.2453C125.928 14.9247 126.245 13.6182 126.882 12.4605C127.503 11.4114 128.425 10.5729 129.528 10.0536C130.81 9.4534 132.215 9.15981 133.63 9.19615C135.008 9.15478 136.375 9.43418 137.626 10.0122C138.679 10.5258 139.547 11.352 140.112 12.3777C140.712 13.5259 141.008 14.8086 140.97 16.1034V16.7362C140.973 16.9114 140.953 17.0863 140.911 17.2566H128.48V14.7255H136.886L135.821 16.0857C135.925 15.9257 136.009 15.7528 136.069 15.5712C136.131 15.4042 136.167 15.2287 136.176 15.0508C136.187 14.52 136.076 13.9938 135.85 13.5132C135.646 13.0978 135.328 12.7491 134.933 12.5078C134.51 12.2643 134.029 12.1416 133.542 12.153C132.948 12.1311 132.361 12.2854 131.855 12.5965C131.37 12.9201 131.006 13.394 130.819 13.9449C130.571 14.6721 130.447 15.4357 130.452 16.2039C130.438 16.9304 130.562 17.6529 130.819 18.3329C131.023 18.8833 131.396 19.3551 131.884 19.6812C132.41 19.9984 133.016 20.1565 133.63 20.1366C134.331 20.1559 135.026 20.0037 135.655 19.693C136.225 19.39 136.694 18.9276 137.004 18.3624L141 19.3382C140.359 20.608 139.353 21.6581 138.111 22.3542C136.785 22.9922 135.336 23.3348 133.864 23.3582C132.393 23.3817 130.933 23.0856 129.587 22.4902V22.4725Z" fill="black"/>
<path d="M60.7744 36.6293H54.4702L49.936 40.9996V26.2566L60.7744 36.6293Z" fill="black"/>
<path d="M45.603 28.3389H0V30.7517H45.603V28.3389Z" fill="#FF9900"/>
<path d="M141 28.3389H62.5798V30.7517H141V28.3389Z" fill="#FF9900"/>
</g>
<defs>
<clipPath id="clip0_1_443">
<rect width="141" height="41" fill="white"/>
</clipPath>
</defs>
</svg>
